<svg width="24" height="24" viewBox="0 0 24 24" fill="none" xmlns="http://www.w3.org/2000/svg">
<g id="Icon / eye">
<path id="eye.slash" d="M17.649 18.7985C17.8657 19.0321 18.1975 19.0471 18.4143 18.7985C18.6378 18.5424 18.6242 18.1808 18.4143 17.9472L6.92806 5.17799C6.71812 4.94445 6.36594 4.93692 6.156 5.17799C5.95282 5.40399 5.95282 5.79574 6.156 6.02174L17.649 18.7985ZM12.3122 5.6074C11.127 5.6074 10.057 5.8334 9.06141 6.20254L10.1586 7.42297C10.8426 7.21203 11.5469 7.08396 12.3122 7.08396C16.6195 7.08396 20.0397 11.25 20.0397 12.1314C20.0397 12.7265 18.9561 14.2558 17.2291 15.4612L18.245 16.5987C20.3715 15.0469 21.6109 13.0203 21.6109 12.1314C21.6109 10.587 17.8725 5.6074 12.3122 5.6074ZM12.3122 18.6629C13.5584 18.6629 14.7029 18.4219 15.7391 18.0226L14.642 16.8022C13.9105 17.0432 13.1385 17.1864 12.3122 17.1864C7.99135 17.1864 4.57123 13.1861 4.57123 12.1314C4.57123 11.6266 5.71578 10.007 7.55114 8.74133L6.51494 7.5887C4.3071 9.15567 3 11.2349 3 12.1314C3 13.6758 6.8197 18.6629 12.3122 18.6629ZM15.6782 13.5703C15.8543 13.1333 15.9491 12.6361 15.9491 12.1314C15.9491 9.87888 14.3304 8.09345 12.3122 8.09345C11.8449 8.09345 11.4115 8.19892 11.0119 8.37972L15.6782 13.5703ZM12.3122 16.1769C12.8269 16.1769 13.3146 16.0413 13.7548 15.8077L8.99368 10.5117C8.77696 11.0014 8.66183 11.5513 8.66183 12.1389C8.6686 14.3312 10.2805 16.1769 12.3122 16.1769Z" fill="#718096"/>
</g>
</svg>
